HIERARCHY
ROOT Hips
{
 OFFSET 0.000000 0.000000 0.000000
 CHANNELS 6 Xposition Yposition Zposition Yrotation Xrotation Zrotation
 JOINT Chest
 {
  OFFSET 0.000000 12.953391 -0.028419
  CHANNELS 3 Yrotation Xrotation Zrotation
  JOINT Chest2
  {
   OFFSET 0.000000 10.280254 0.051622
   CHANNELS 3 Yrotation Xrotation Zrotation
   JOINT Chest3
   {
    OFFSET 0.000000 9.287180 0.000000
    CHANNELS 3 Yrotation Xrotation Zrotation
    JOINT Chest4
    {
     OFFSET 0.000000 9.287180 0.000000
     CHANNELS 3 Yrotation Xrotation Zrotation
     JOINT Neck
     {
      OFFSET 0.000000 13.296264 0.000000
      CHANNELS 3 Yrotation Xrotation Zrotation
      JOINT Head
      {
       OFFSET 0.000000 8.959264 0.099003
       CHANNELS 3 Yrotation Xrotation Zrotation
       End Site
       {
        OFFSET 0.000000 17.121337 0.039303
       }
      }
     }
     JOINT RightCollar
     {
      OFFSET -3.193511 7.451388 0.000000
      CHANNELS 3 Yrotation Xrotation Zrotation
      JOINT RightShoulder
      {
       OFFSET -15.792092 0.000000 0.000000
       CHANNELS 3 Yrotation Xrotation Zrotation
       JOINT RightElbow
       {
        OFFSET -31.151839 0.000000 0.000000
        CHANNELS 3 Yrotation Xrotation Zrotation
        JOINT RightWrist
        {
         OFFSET -25.536298 0.000000 0.002321
         CHANNELS 3 Yrotation Xrotation Zrotation
         End Site
         {
          OFFSET -19.133213 0.000000 0.000000
         }
        }
       }
      }
     }
     JOINT LeftCollar
     {
      OFFSET 3.193511 7.451388 0.000000
      CHANNELS 3 Yrotation Xrotation Zrotation
      JOINT LeftShoulder
      {
       OFFSET 15.792092 0.000000 0.000000
       CHANNELS 3 Yrotation Xrotation Zrotation
       JOINT LeftElbow
       {
        OFFSET 31.151839 0.000000 0.000000
        CHANNELS 3 Yrotation Xrotation Zrotation
        JOINT LeftWrist
        {
         OFFSET 25.536298 0.000000 0.002321
         CHANNELS 3 Yrotation Xrotation Zrotation
         End Site
         {
          OFFSET 19.133213 0.000000 0.000000
         }
        }
       }
      }
     }
    }
   }
  }
 }
 JOINT RightHip
 {
  OFFSET -10.745749 0.139252 0.014209
  CHANNELS 3 Yrotation Xrotation Zrotation
  JOINT RightKnee
  {
   OFFSET 0.000000 -43.743899 -0.006071
   CHANNELS 3 Yrotation Xrotation Zrotation
   JOINT RightAnkle
   {
    OFFSET 0.000000 -43.214199 0.089931
    CHANNELS 3 Yrotation Xrotation Zrotation
    JOINT RightToe
    {
     OFFSET 0.000000 -9.699830 19.151588
     CHANNELS 3 Yrotation Xrotation Zrotation
     End Site
     {
      OFFSET 0.000000 -1.292898 4.893873
     }
    }
   }
  }
 }
 JOINT LeftHip
 {
  OFFSET 10.745749 0.139252 0.014209
  CHANNELS 3 Yrotation Xrotation Zrotation
  JOINT LeftKnee
  {
   OFFSET 0.000000 -43.743899 -0.006071
   CHANNELS 3 Yrotation Xrotation Zrotation
   JOINT LeftAnkle
   {
    OFFSET 0.000000 -43.214199 0.089931
    CHANNELS 3 Yrotation Xrotation Zrotation
    JOINT LeftToe
    {
     OFFSET 0.000000 -9.699830 19.151588
     CHANNELS 3 Yrotation Xrotation Zrotation
     End Site
     {
      OFFSET 0.000000 -1.292898 4.893873
     }
    }
   }
  }
 }
}
MOTION
Frames: 5
Frame Time: 0.016667
114.936115 98.961815 182.119344 -12.304751 -8.656442 -0.392657 0.025607 5.793443 -0.912822 0.022775 2.574810 -0.405485 0.022775 2.574810 -0.405485 0.018788 1.931093 -0.304158 1.963160 22.004755 1.852369 3.031094 4.665783 2.799769 6.526636 -36.628622 -18.691107 66.071336 -34.239921 2.497977 33.256782 -29.774620 -15.944551 12.286767 -21.484362 -4.726338 -15.345865 -42.306913 25.166933 -93.813047 -42.354728 6.722030 -9.231141 -4.634791 7.119327 -10.512154 -27.265949 12.771508 -5.378049 14.790846 -0.497213 -0.418990 -0.575977 -0.254365 -8.185815 -2.306574 3.421676 0.000000 0.000000 0.000000 4.585812 12.677132 3.867463 0.542252 1.950284 0.175099 0.601206 -3.263981 -2.475323 0.000000 0.000000 0.000000
114.940820 98.963427 182.114246 -12.348060 -8.626754 -0.380031 0.021916 5.731912 -0.913706 0.021026 2.547470 -0.405839 0.021025 2.547470 -0.405839 0.017459 1.910589 -0.304417 1.999823 22.012136 1.861438 3.094918 4.679190 2.806000 6.608847 -36.526294 -18.712683 66.089854 -34.262917 2.477817 33.312081 -29.835437 -15.985619 12.295356 -21.466570 -4.728870 -15.355088 -42.175864 25.180318 -93.788702 -42.345768 6.732430 -9.181422 -4.682582 7.133908 -10.495323 -27.270513 12.769400 -5.329231 14.743590 -0.501291 -0.414190 -0.559139 -0.251619 -8.198670 -2.309961 3.420522 0.000000 0.000000 0.000000 4.646325 12.643666 3.861179 0.533438 1.955521 0.174133 0.591811 -3.258527 -2.472521 0.000000 -0.000000 0.000000
114.947774 98.965125 182.107145 -12.389879 -8.580551 -0.361073 0.016979 5.657768 -0.920050 0.018765 2.514526 -0.408605 0.018765 2.514526 -0.408605 0.015754 1.885883 -0.306482 2.037223 22.026566 1.871658 3.159827 4.705671 2.814213 6.686090 -36.421871 -18.735741 66.103012 -34.265774 2.470474 33.386439 -29.937309 -16.037153 12.302448 -21.450540 -4.737068 -15.402479 -42.049152 25.205971 -93.739631 -42.345425 6.716937 -9.126138 -4.727740 7.153174 -10.476046 -27.274150 12.765533 -5.281826 14.676408 -0.511743 -0.406071 -0.538814 -0.247688 -8.216176 -2.315286 3.418536 0.000000 0.000000 0.000000 4.713109 12.591802 3.848366 0.522049 1.960478 0.172082 0.574997 -3.249592 -2.468645 -0.000000 -0.000000 0.000000
114.955777 98.966096 182.101797 -12.417820 -8.542066 -0.342538 0.001344 5.589539 -0.926821 0.011772 2.484233 -0.411432 0.011772 2.484233 -0.411432 0.010501 1.863168 -0.308574 2.070716 22.039549 1.880892 3.217932 4.729497 2.821726 6.776006 -36.324092 -18.768345 66.116831 -34.261366 2.458833 33.438218 -30.000387 -16.074387 12.303865 -21.439730 -4.740849 -15.427424 -41.920733 25.220826 -93.705572 -42.349213 6.715315 -9.087153 -4.772059 7.176259 -10.465177 -27.273178 12.766847 -5.234321 14.622726 -0.521252 -0.408832 -0.524432 -0.245420 -8.237351 -2.321421 3.418452 0.000000 -0.000000 0.000000 4.770982 12.547723 3.834819 0.506415 1.964192 0.169953 0.556721 -3.241224 -2.464261 0.000000 -0.000000 0.000000
114.965170 98.965780 182.100343 -12.423898 -8.522998 -0.326126 -0.033332 5.535495 -0.932679 -0.003659 2.460284 -0.413628 -0.003659 2.460284 -0.413628 -0.001078 1.845217 -0.310159 2.101975 22.047073 1.888322 3.272443 4.743220 2.826530 6.894342 -36.237707 -18.817582 66.135056 -34.254911 2.435109 33.436067 -29.978780 -16.081677 12.294161 -21.437370 -4.736596 -15.401135 -41.787169 25.213330 -93.703623 -42.356034 6.745364 -9.075858 -4.821179 7.207068 -10.470249 -27.264214 12.778656 -5.181496 14.599189 -0.527084 -0.433508 -0.520959 -0.246003 -8.264368 -2.328553 3.421682 0.000000 0.000000 0.000000 4.815817 12.524075 3.822475 0.482658 1.965408 0.167777 0.536988 -3.234855 -2.458994 0.000000 -0.000000 0.000000
